# xmcd
#
# Track frame offsets: 
#        150
#        17911
#        40035
#        58063
#        81496
#        100645
#        120198
#        141540
#        162826
#        180297
#        203755
#        225612
#        246489
#        263613
#        282224
#
# Disc length: 4006 seconds
#
# Revision: 1
# Processed by: cddbd v1.5.2PL0 Copyright (c) Steve Scherf et al.
# Submitted via: ExactAudioCopyFreeDBPlugin 1.0
#
DISCID=c60fa40f
DTITLE=群星 - DTS51梦中的草原
DYEAR=2010
DGENRE=DTS
TTITLE0=陪你一起看草原
TTITLE1=套马杆
TTITLE2=我的根在草原
TTITLE3=乌兰巴托的夜
TTITLE4=蓝色的蒙古草原
TTITLE5=风吹草动
TTITLE6=成吉思汗的传说
TTITLE7=雕花的马鞭
TTITLE8=红雪莲
TTITLE9=天路
TTITLE10=鄂尔多斯之恋
TTITLE11=香格里拉
TTITLE12=遇上你是我的缘
TTITLE13=草原夜色美
TTITLE14=梦中的唐古拉
EXTD=
EXTT0=
EXTT1=
EXTT2=
EXTT3=
EXTT4=
EXTT5=
EXTT6=
EXTT7=
EXTT8=
EXTT9=
EXTT10=
EXTT11=
EXTT12=
EXTT13=
EXTT14=
PLAYORDER=
